<svg width="682" height="290" viewBox="0 0 682 290" fill="none" xmlns="http://www.w3.org/2000/svg">
<path d="M181.587 63L195.472 3.14999H203.053L189.168 63H181.587ZM174.804 63V62.8005H201.936C206.112 62.8005 209.424 62.0291 211.871 60.4863C214.345 58.9435 216.233 56.8288 217.537 54.1422C218.867 51.4556 219.917 48.4232 220.689 45.045H220.848L216.699 63H174.804ZM188.29 3.34949V3.14999H210.235V3.34949H188.29ZM237.449 63.798C233.432 63.798 230.453 62.5744 228.511 60.1272C226.569 57.68 225.598 54.6609 225.598 51.0699C225.598 47.5853 226.17 44.3002 227.314 41.2146C228.484 38.129 230.067 35.4158 232.062 33.075C234.057 30.7076 236.331 28.8589 238.885 27.5289C241.465 26.1723 244.165 25.494 246.985 25.494C251.028 25.494 254.007 26.7309 255.922 29.2047C257.864 31.6519 258.835 34.671 258.835 38.262C258.835 41.7466 258.25 45.0317 257.079 48.1173C255.936 51.2029 254.366 53.9294 252.371 56.2968C250.376 58.6376 248.089 60.473 245.508 61.803C242.955 63.133 240.268 63.798 237.449 63.798ZM236.651 63.5985C238.114 63.5985 239.537 63.1064 240.92 62.1222C242.33 61.1114 243.673 59.7681 244.95 58.0923C246.227 56.3899 247.397 54.4614 248.461 52.3068C249.525 50.1522 250.443 47.9045 251.214 45.5637C252.012 43.1963 252.624 40.8555 253.05 38.5413C253.502 36.2271 253.728 34.0858 253.728 32.1174C253.728 30.149 253.249 28.5929 252.291 27.4491C251.334 26.3053 249.831 25.7334 247.783 25.7334C246.346 25.7334 244.923 26.2388 243.513 27.2496C242.104 28.2338 240.76 29.5771 239.484 31.2795C238.207 32.9553 237.036 34.8705 235.972 37.0251C234.908 39.1797 233.977 41.4407 233.179 43.8081C232.408 46.1489 231.796 48.4764 231.344 50.7906C230.918 53.0782 230.706 55.2195 230.706 57.2145C230.706 59.1563 231.184 60.7124 232.142 61.8828C233.126 63.0266 234.629 63.5985 236.651 63.5985ZM297.853 82.95L306.192 52.1472C306.697 51.0832 307.216 49.6601 307.748 47.8779C308.28 46.0691 308.666 44.5263 308.905 43.2495L309.264 40.6959L312.895 27.09L319.559 25.494L304.117 82.95H297.853ZM291.469 82.95V82.7505H311.02V82.95H291.469ZM293.663 63.798C290.099 63.798 287.519 62.6675 285.923 60.4065C284.353 58.1189 283.569 54.9269 283.569 50.8305C283.569 47.7715 284.127 44.7524 285.245 41.7732C286.362 38.7674 287.865 36.0409 289.753 33.5937C291.642 31.1465 293.73 29.1914 296.018 27.7284C298.332 26.2388 300.659 25.494 303 25.494C304.862 25.494 306.259 26.0393 307.19 27.1299C308.147 28.2205 308.772 29.6569 309.065 31.4391C309.384 33.1947 309.544 35.0966 309.544 37.1448C309.544 38.9004 309.371 40.7757 309.025 42.7707C308.706 44.7657 308.227 46.7607 307.589 48.7557C306.95 50.7507 306.165 52.6526 305.234 54.4614C304.303 56.2436 303.239 57.8396 302.042 59.2494C300.872 60.6592 299.582 61.7764 298.172 62.601C296.789 63.399 295.286 63.798 293.663 63.798ZM295.06 63.0399C296.629 63.0399 298.132 62.4946 299.569 61.404C301.005 60.3134 302.308 58.8504 303.479 57.015C304.676 55.1796 305.713 53.1314 306.591 50.8704C307.469 48.6094 308.147 46.2952 308.626 43.9278C309.105 41.5338 309.344 39.2728 309.344 37.1448C309.344 35.07 309.185 33.1947 308.865 31.5189C308.573 29.8165 308.014 28.4599 307.19 27.4491C306.392 26.4383 305.248 25.9329 303.758 25.9329C302.375 25.9329 301.005 26.5713 299.648 27.8481C298.292 29.0983 297.015 30.7608 295.818 32.8356C294.621 34.9104 293.557 37.198 292.626 39.6984C291.695 42.1722 290.964 44.6593 290.432 47.1597C289.9 49.6601 289.634 51.9477 289.634 54.0225C289.634 56.8687 290.112 59.0898 291.07 60.6858C292.054 62.2552 293.384 63.0399 295.06 63.0399ZM331.135 63.798C328.582 63.798 326.733 63.2527 325.589 62.1621C324.445 61.0449 323.82 59.5819 323.714 57.7731C323.607 55.9377 323.794 53.9294 324.272 51.7482L329.978 26.4915H324.432V26.292H336.841L331.055 50.8305C330.577 52.9319 330.178 54.9003 329.858 56.7357C329.566 58.5711 329.606 60.0607 329.978 61.2045C330.377 62.3217 331.375 62.8803 332.971 62.8803C334.327 62.8803 335.843 62.1222 337.519 60.606C339.195 59.0632 340.857 57.0283 342.507 54.5013C344.182 51.9743 345.712 49.1813 347.095 46.1223C348.478 43.0367 349.542 39.9644 350.287 36.9054H350.487C350.034 38.8738 349.343 41.055 348.412 43.449C347.481 45.843 346.377 48.237 345.1 50.631C343.85 53.025 342.453 55.2195 340.911 57.2145C339.394 59.1829 337.798 60.7789 336.123 62.0025C334.473 63.1995 332.811 63.798 331.135 63.798ZM351.564 63.798C349.489 63.798 347.92 63.266 346.856 62.202C345.792 61.138 345.26 60.0075 345.26 58.8105C345.26 58.4913 345.286 58.0923 345.34 57.6135C345.419 57.1081 345.512 56.6426 345.619 56.217L352.841 26.292H359.584L350.527 60.4863C350.473 60.7257 350.433 60.9784 350.407 61.2444C350.38 61.4838 350.367 61.7099 350.367 61.9227C350.367 62.9335 350.859 63.4389 351.843 63.4389C353.386 63.4389 354.796 63.0133 356.073 62.1621C357.376 61.2843 358.6 59.9144 359.743 58.0524C360.887 56.1638 362.004 53.7299 363.095 50.7507L363.255 50.7906C362.111 53.8496 360.954 56.3367 359.783 58.2519C358.613 60.1671 357.363 61.5769 356.033 62.4813C354.703 63.3591 353.213 63.798 351.564 63.798ZM380.366 63.798C377.813 63.798 375.658 63.266 373.902 62.202C372.147 61.1114 370.817 59.6085 369.912 57.6933C369.008 55.7781 368.556 53.557 368.556 51.03C368.556 47.971 369.114 44.9386 370.232 41.9328C371.349 38.9004 372.918 36.1473 374.94 33.6735C376.961 31.1997 379.329 29.218 382.042 27.7284C384.782 26.2388 387.748 25.494 390.94 25.494C393.812 25.494 396.034 26.2122 397.603 27.6486C399.199 29.0584 399.997 30.814 399.997 32.9154C399.997 35.0966 399.252 37.0118 397.763 38.661C396.273 40.3102 394.278 41.7067 391.778 42.8505C389.304 43.9677 386.564 44.8455 383.558 45.4839C380.579 46.1223 377.573 46.5479 374.541 46.7607V46.6011C376.961 46.4415 379.182 46.1489 381.204 45.7233C383.252 45.2711 385.061 44.6593 386.63 43.8879C388.226 43.1165 389.57 42.1589 390.66 41.0151C391.778 39.8447 392.629 38.4482 393.214 36.8256C393.799 35.203 394.092 33.3277 394.092 31.1997C394.092 29.8431 393.826 28.5929 393.294 27.4491C392.788 26.2787 391.817 25.6935 390.381 25.6935C388.865 25.6935 387.415 26.1457 386.032 27.0501C384.675 27.9545 383.399 29.1914 382.202 30.7608C381.031 32.3036 379.967 34.0592 379.01 36.0276C378.052 37.996 377.227 40.0708 376.536 42.252C375.871 44.4332 375.352 46.6011 374.98 48.7557C374.634 50.9103 374.461 52.9319 374.461 54.8205C374.461 58.1455 375.073 60.4198 376.296 61.6434C377.547 62.867 379.103 63.4788 380.965 63.4788C383.332 63.4788 385.5 62.9867 387.468 62.0025C389.437 61.0183 391.192 59.7149 392.735 58.0923C394.305 56.4431 395.608 54.621 396.645 52.626L396.805 52.7058C395.768 54.7274 394.451 56.5761 392.855 58.2519C391.285 59.9277 389.45 61.271 387.349 62.2818C385.274 63.2926 382.946 63.798 380.366 63.798ZM432.6 63.798C430.046 63.798 428.197 63.2527 427.054 62.1621C425.91 61.0449 425.285 59.5819 425.178 57.7731C425.072 55.9377 425.258 53.9294 425.737 51.7482L431.443 26.4915H425.896V26.292H438.305L432.52 50.8305C432.041 52.9319 431.642 54.9003 431.323 56.7357C431.03 58.5711 431.07 60.0607 431.443 61.2045C431.842 62.3217 432.839 62.8803 434.435 62.8803C435.792 62.8803 437.308 62.1222 438.984 60.606C440.659 59.0632 442.322 57.0283 443.971 54.5013C445.647 51.9743 447.176 49.1813 448.56 46.1223C449.943 43.0367 451.007 39.9644 451.752 36.9054H451.951C451.499 38.8738 450.807 41.055 449.876 43.449C448.945 45.843 447.841 48.237 446.565 50.631C445.314 53.025 443.918 55.2195 442.375 57.2145C440.859 59.1829 439.263 60.7789 437.587 62.0025C435.938 63.1995 434.275 63.798 432.6 63.798ZM453.028 63.798C450.954 63.798 449.384 63.266 448.32 62.202C447.256 61.138 446.724 60.0075 446.724 58.8105C446.724 58.4913 446.751 58.0923 446.804 57.6135C446.884 57.1081 446.977 56.6426 447.083 56.217L454.305 26.292H461.048L451.991 60.4863C451.938 60.7257 451.898 60.9784 451.871 61.2444C451.845 61.4838 451.831 61.7099 451.831 61.9227C451.831 62.9335 452.324 63.4389 453.308 63.4389C454.851 63.4389 456.26 63.0133 457.537 62.1621C458.841 61.2843 460.064 59.9144 461.208 58.0524C462.352 56.1638 463.469 53.7299 464.56 50.7507L464.719 50.7906C463.575 53.8496 462.418 56.3367 461.248 58.2519C460.077 60.1671 458.827 61.5769 457.497 62.4813C456.167 63.3591 454.678 63.798 453.028 63.798ZM498.269 63.798C496.195 63.798 494.625 63.3857 493.561 62.5611C492.524 61.7365 492.005 60.473 492.005 58.7706C492.005 58.1854 492.058 57.68 492.165 57.2544C492.271 56.8022 492.378 56.4032 492.484 56.0574L497.711 38.4216C498.323 36.3468 498.788 34.405 499.107 32.5962C499.427 30.7608 499.387 29.2845 498.988 28.1673C498.589 27.0235 497.618 26.4516 496.075 26.4516C494.692 26.4516 493.162 27.223 491.486 28.7658C489.811 30.282 488.135 32.3036 486.459 34.8306C484.81 37.3576 483.294 40.1506 481.91 43.2096C480.554 46.2686 479.49 49.3276 478.718 52.3866H478.599C479.078 50.4182 479.769 48.2503 480.674 45.8829C481.578 43.4889 482.655 41.1082 483.905 38.7408C485.182 36.3468 486.579 34.1523 488.095 32.1573C489.611 30.1623 491.194 28.5663 492.843 27.3693C494.492 26.1457 496.168 25.5339 497.87 25.5339C500.185 25.5339 501.914 26.0925 503.057 27.2097C504.228 28.3003 504.906 29.75 505.092 31.5588C505.279 33.3676 505.066 35.3493 504.454 37.5039L497.91 60.4464C497.831 60.6858 497.764 60.9385 497.711 61.2045C497.684 61.4439 497.671 61.67 497.671 61.8828C497.671 62.3084 497.777 62.6675 497.99 62.9601C498.203 63.2527 498.602 63.399 499.187 63.399C501.581 63.399 503.643 62.4148 505.372 60.4464C507.101 58.478 508.816 55.2461 510.519 50.7507L510.678 50.7906C509.535 53.8496 508.377 56.3367 507.207 58.2519C506.063 60.1671 504.773 61.5769 503.337 62.4813C501.927 63.3591 500.238 63.798 498.269 63.798ZM469.621 63L478.359 26.4915H472.654V26.292H484.983L476.205 63H469.621ZM526.137 63.798C522.573 63.798 519.992 62.6675 518.396 60.4065C516.827 58.1189 516.042 54.9269 516.042 50.8305C516.042 47.7715 516.601 44.7524 517.718 41.7732C518.835 38.7674 520.338 36.0409 522.227 33.5937C524.115 31.1465 526.204 29.1914 528.491 27.7284C530.805 26.2388 533.133 25.494 535.474 25.494C537.389 25.494 538.812 26.0659 539.743 27.2097C540.701 28.3269 541.312 29.7766 541.578 31.5588C541.871 33.341 542.017 35.203 542.017 37.1448C542.017 38.9004 541.844 40.7757 541.499 42.7707C541.179 44.7657 540.701 46.7607 540.062 48.7557C539.424 50.7507 538.639 52.6526 537.708 54.4614C536.777 56.2436 535.713 57.8396 534.516 59.2494C533.346 60.6592 532.056 61.7764 530.646 62.601C529.263 63.399 527.76 63.798 526.137 63.798ZM527.534 63.0399C529.13 63.0399 530.632 62.4946 532.042 61.404C533.479 60.2868 534.795 58.8105 535.992 56.9751C537.189 55.1397 538.213 53.0915 539.065 50.8305C539.942 48.5429 540.621 46.2154 541.1 43.848C541.578 41.4806 541.818 39.2462 541.818 37.1448C541.818 35.07 541.658 33.1947 541.339 31.5189C541.046 29.8165 540.488 28.4599 539.663 27.4491C538.865 26.4383 537.721 25.9329 536.232 25.9329C534.849 25.9329 533.479 26.558 532.122 27.8082C530.765 29.0318 529.489 30.6677 528.292 32.7159C527.095 34.7375 526.031 36.9719 525.1 39.4191C524.169 41.8663 523.437 44.3268 522.905 46.8006C522.373 49.2744 522.107 51.5487 522.107 53.6235C522.107 56.8421 522.599 59.2228 523.583 60.7656C524.594 62.2818 525.911 63.0399 527.534 63.0399ZM543.494 63.798C541.632 63.798 540.262 63.2926 539.384 62.2818C538.506 61.271 538.067 59.9676 538.067 58.3716C538.067 57.9194 538.08 57.5204 538.107 57.1746C538.134 56.8022 538.174 56.483 538.227 56.217L539.144 51.1098L540.94 45.2046L542.017 38.7807L545.01 26.292H551.753L542.616 60.5661C542.509 60.9651 542.456 61.3907 542.456 61.8429C542.456 62.2951 542.576 62.6808 542.815 63C543.081 63.2926 543.507 63.4389 544.092 63.4389C545.635 63.4389 547.031 63.0133 548.282 62.1621C549.558 61.2843 550.755 59.9144 551.873 58.0524C553.016 56.1638 554.147 53.7299 555.264 50.7507L555.424 50.7906C554.28 53.8496 553.123 56.3367 551.952 58.2519C550.809 60.1671 549.558 61.5769 548.202 62.4813C546.845 63.3591 545.276 63.798 543.494 63.798Z" fill="#666666"/>
<path d="M6.63405 140.776V129.912H6.82805C6.87978 131.826 7.53938 133.598 8.80685 135.228C10.1002 136.831 11.7427 138.112 13.7344 139.069C15.752 140.026 17.8731 140.504 20.0976 140.504C21.6496 140.504 23.1499 140.272 24.5984 139.806C26.0728 139.34 27.2756 138.577 28.2068 137.517C29.1639 136.43 29.6424 134.982 29.6424 133.171C29.6424 131.516 29.1122 130.222 28.0516 129.291C26.9911 128.36 25.6202 127.597 23.9388 127.002C22.2575 126.407 20.4727 125.838 18.5844 125.295C16.6962 124.726 14.9114 124.027 13.23 123.2C11.5746 122.346 10.2166 121.208 9.15605 119.785C8.09551 118.337 7.56525 116.41 7.56525 114.004C7.56525 112.349 7.95325 110.732 8.72925 109.154C9.53111 107.55 10.7339 106.231 12.3376 105.196C13.9414 104.136 15.9719 103.606 18.4292 103.606C20.2916 103.606 21.9988 103.916 23.5508 104.537C25.1028 105.158 26.435 105.972 27.5472 106.981L31.0392 103.528H31.2332V114.392H31.0392C31.0392 112.711 30.496 111.068 29.4096 109.464C28.3232 107.835 26.8359 106.49 24.9476 105.429C23.0594 104.343 20.9124 103.8 18.5068 103.8C17.0066 103.8 15.6486 104.032 14.4328 104.498C13.243 104.938 12.2988 105.597 11.6004 106.477C10.902 107.356 10.5528 108.43 10.5528 109.697C10.5528 111.249 11.109 112.491 12.2212 113.422C13.3335 114.327 14.7691 115.103 16.528 115.75C18.3128 116.397 20.1882 117.03 22.154 117.651C24.1458 118.246 26.0211 118.996 27.78 119.902C29.539 120.781 30.9746 121.945 32.0868 123.394C33.225 124.816 33.794 126.679 33.794 128.981C33.794 131.283 33.212 133.326 32.048 135.111C30.884 136.87 29.3062 138.254 27.3144 139.263C25.3227 140.272 23.0723 140.776 20.5632 140.776C18.5974 140.776 16.7479 140.453 15.0148 139.806C13.2818 139.159 11.7686 138.28 10.4752 137.168L6.82805 140.776H6.63405ZM58.8461 140.776C55.4576 140.776 52.3924 140.039 49.6505 138.564C46.9345 137.064 44.7746 134.93 43.1709 132.162C41.5672 129.369 40.7653 126.032 40.7653 122.152C40.7653 118.272 41.5413 114.948 43.0933 112.18C44.6712 109.387 46.8052 107.253 49.4953 105.778C52.1854 104.278 55.2248 103.528 58.6133 103.528C62.4674 103.528 65.5585 104.304 67.8865 105.856C70.2404 107.382 71.9476 109.387 73.0081 111.87C74.0945 114.353 74.6377 117.005 74.6377 119.824H45.9645V119.63H66.4121C66.438 118.104 66.3604 116.435 66.1793 114.625C65.9982 112.814 65.6361 111.081 65.0929 109.426C64.5756 107.77 63.7996 106.412 62.7649 105.352C61.7302 104.265 60.3464 103.722 58.6133 103.722C56.6992 103.722 55.1084 104.265 53.8409 105.352C52.5993 106.412 51.6164 107.835 50.8921 109.62C50.1678 111.404 49.6505 113.383 49.3401 115.556C49.0556 117.729 48.9133 119.927 48.9133 122.152C48.9133 124.351 49.0556 126.549 49.3401 128.748C49.6505 130.921 50.1808 132.887 50.9309 134.646C51.7069 136.405 52.7674 137.827 54.1125 138.914C55.4834 139.974 57.2294 140.504 59.3505 140.504C63.3598 140.504 66.6449 139.379 69.2057 137.129C71.7924 134.853 73.5642 132.124 74.5213 128.942H74.7541C73.7453 132.279 71.9217 135.085 69.2833 137.362C66.6449 139.638 63.1658 140.776 58.8461 140.776ZM82.0364 140.776V129.912H82.2304C82.2821 131.826 82.9417 133.598 84.2092 135.228C85.5025 136.831 87.1451 138.112 89.1368 139.069C91.1544 140.026 93.2755 140.504 95.5 140.504C97.052 140.504 98.5523 140.272 100.001 139.806C101.475 139.34 102.678 138.577 103.609 137.517C104.566 136.43 105.045 134.982 105.045 133.171C105.045 131.516 104.515 130.222 103.454 129.291C102.393 128.36 101.023 127.597 99.3412 127.002C97.6599 126.407 95.8751 125.838 93.9868 125.295C92.0985 124.726 90.3137 124.027 88.6324 123.2C86.9769 122.346 85.6189 121.208 84.5584 119.785C83.4979 118.337 82.9676 116.41 82.9676 114.004C82.9676 112.349 83.3556 110.732 84.1316 109.154C84.9335 107.55 86.1363 106.231 87.74 105.196C89.3437 104.136 91.3743 103.606 93.8316 103.606C95.694 103.606 97.4012 103.916 98.9532 104.537C100.505 105.158 101.837 105.972 102.95 106.981L106.442 103.528H106.636V114.392H106.442C106.442 112.711 105.898 111.068 104.812 109.464C103.726 107.835 102.238 106.49 100.35 105.429C98.4617 104.343 96.3148 103.8 93.9092 103.8C92.4089 103.8 91.0509 104.032 89.8352 104.498C88.6453 104.938 87.7012 105.597 87.0028 106.477C86.3044 107.356 85.9552 108.43 85.9552 109.697C85.9552 111.249 86.5113 112.491 87.6236 113.422C88.7359 114.327 90.1715 115.103 91.9304 115.75C93.7152 116.397 95.5905 117.03 97.5564 117.651C99.5481 118.246 101.423 118.996 103.182 119.902C104.941 120.781 106.377 121.945 107.489 123.394C108.627 124.816 109.196 126.679 109.196 128.981C109.196 131.283 108.614 133.326 107.45 135.111C106.286 136.87 104.709 138.254 102.717 139.263C100.725 140.272 98.4747 140.776 95.9656 140.776C93.9997 140.776 92.1503 140.453 90.4172 139.806C88.6841 139.159 87.1709 138.28 85.8776 137.168L82.2304 140.776H82.0364ZM123.578 90.336C122.311 90.336 121.212 89.8833 120.28 88.978C119.375 88.0468 118.922 86.9475 118.922 85.68C118.922 84.3867 119.375 83.2873 120.28 82.382C121.212 81.4767 122.311 81.024 123.578 81.024C124.872 81.024 125.971 81.4767 126.876 82.382C127.782 83.2873 128.234 84.3867 128.234 85.68C128.234 86.9475 127.782 88.0468 126.876 88.978C125.971 89.8833 124.872 90.336 123.578 90.336ZM127.032 104.304V139.806H131.688V140H115.353V139.806H120.048V104.498H115.353V104.304H127.032ZM155.99 140.776C152.369 140.776 149.226 139.922 146.562 138.215C143.898 136.508 141.841 134.245 140.393 131.425C138.944 128.606 138.22 125.515 138.22 122.152C138.22 118.789 138.944 115.698 140.393 112.879C141.841 110.059 143.898 107.796 146.562 106.089C149.226 104.382 152.369 103.528 155.99 103.528C159.663 103.528 162.819 104.382 165.458 106.089C168.122 107.796 170.165 110.059 171.588 112.879C173.037 115.698 173.761 118.789 173.761 122.152C173.761 125.515 173.037 128.606 171.588 131.425C170.165 134.245 168.122 136.508 165.458 138.215C162.819 139.922 159.663 140.776 155.99 140.776ZM155.99 140.582C158.111 140.582 159.806 139.974 161.073 138.758C162.367 137.543 163.337 135.991 163.983 134.102C164.63 132.214 165.057 130.209 165.264 128.088C165.496 125.941 165.613 123.963 165.613 122.152C165.613 120.315 165.496 118.337 165.264 116.216C165.057 114.095 164.63 112.09 163.983 110.202C163.337 108.313 162.367 106.761 161.073 105.546C159.806 104.33 158.111 103.722 155.99 103.722C153.869 103.722 152.162 104.33 150.869 105.546C149.601 106.761 148.644 108.313 147.998 110.202C147.351 112.09 146.911 114.095 146.678 116.216C146.471 118.337 146.368 120.315 146.368 122.152C146.368 123.963 146.471 125.941 146.678 128.088C146.911 130.209 147.351 132.214 147.998 134.102C148.644 135.991 149.601 137.543 150.869 138.758C152.162 139.974 153.869 140.582 155.99 140.582ZM153.197 96.8156L153.119 96.6992L160.53 87.7752C161.021 87.1803 161.552 86.8569 162.121 86.8052C162.716 86.7535 163.259 86.8699 163.75 87.1544C164.268 87.4131 164.643 87.7623 164.876 88.202C165.134 88.6159 165.251 89.0815 165.225 89.5988C165.225 90.1161 165.095 90.5947 164.837 91.0344C164.604 91.4741 164.268 91.7975 163.828 92.0044L153.197 96.8156ZM191.549 104.304V139.806H196.244V140H179.909V139.806H184.643V104.498H179.909V104.304H191.549ZM215.256 115.246V139.806H219.951V140H203.616V139.806H208.272V116.099C208.272 113.926 208.182 111.922 208.001 110.085C207.82 108.223 207.393 106.723 206.72 105.584C206.048 104.446 205 103.877 203.577 103.877C200.81 103.877 198.611 104.524 196.981 105.817C195.378 107.111 194.188 108.74 193.412 110.706C192.636 112.672 192.131 114.728 191.899 116.875C191.666 119.022 191.549 120.962 191.549 122.695L191.394 123.083C191.394 121.247 191.498 119.216 191.705 116.992C191.912 114.741 192.416 112.594 193.218 110.551C194.02 108.507 195.287 106.826 197.02 105.507C198.779 104.188 201.185 103.528 204.237 103.528C207.263 103.528 209.566 104.032 211.143 105.041C212.747 106.05 213.834 107.447 214.403 109.232C214.972 110.991 215.256 112.995 215.256 115.246ZM244.248 159.4V159.206H248.981V104.498H244.248V104.304H255.926V118.427C256.366 113.668 257.621 110.008 259.69 107.447C261.785 104.886 264.579 103.606 268.071 103.606C270.89 103.606 273.542 104.343 276.025 105.817C278.534 107.292 280.564 109.413 282.116 112.18C283.694 114.948 284.483 118.272 284.483 122.152C284.483 126.032 283.694 129.369 282.116 132.162C280.564 134.93 278.534 137.064 276.025 138.564C273.542 140.039 270.89 140.776 268.071 140.776C264.579 140.776 261.785 139.483 259.69 136.896C257.621 134.283 256.366 130.61 255.926 125.877V159.206H260.582V159.4H244.248ZM266.868 140.194C269.015 140.194 270.787 139.418 272.184 137.866C273.58 136.288 274.628 134.141 275.326 131.425C276.025 128.709 276.374 125.618 276.374 122.152C276.374 118.686 276.025 115.608 275.326 112.918C274.628 110.202 273.58 108.068 272.184 106.516C270.787 104.964 269.015 104.188 266.868 104.188C264.85 104.188 263.014 104.86 261.358 106.205C259.703 107.55 258.384 109.555 257.401 112.219C256.418 114.883 255.926 118.194 255.926 122.152C255.926 126.11 256.418 129.433 257.401 132.124C258.384 134.788 259.703 136.805 261.358 138.176C263.014 139.521 264.85 140.194 266.868 140.194ZM306.34 140.776C303.313 140.776 301.011 140.272 299.433 139.263C297.856 138.228 296.782 136.831 296.213 135.072C295.644 133.313 295.359 131.309 295.359 129.058V104.498H290.626V104.304H302.305V128.205C302.305 130.378 302.395 132.395 302.576 134.258C302.757 136.094 303.184 137.581 303.857 138.72C304.529 139.858 305.59 140.427 307.038 140.427C309.78 140.427 311.953 139.78 313.557 138.487C315.186 137.193 316.376 135.564 317.126 133.598C317.902 131.632 318.407 129.576 318.639 127.429C318.872 125.282 318.989 123.342 318.989 121.609L319.183 121.221C319.183 123.057 319.079 125.101 318.872 127.351C318.665 129.576 318.161 131.71 317.359 133.753C316.557 135.797 315.29 137.478 313.557 138.797C311.824 140.116 309.418 140.776 306.34 140.776ZM318.989 140V104.498H313.557V104.304H326.011V139.806H330.667V140H318.989ZM354.848 140.776C351.459 140.776 348.394 140.039 345.652 138.564C342.936 137.064 340.776 134.93 339.172 132.162C337.569 129.369 336.767 126.032 336.767 122.152C336.767 118.272 337.543 114.948 339.095 112.18C340.673 109.387 342.807 107.253 345.497 105.778C348.187 104.278 351.226 103.528 354.615 103.528C358.469 103.528 361.56 104.304 363.888 105.856C366.242 107.382 367.949 109.387 369.01 111.87C370.096 114.353 370.639 117.005 370.639 119.824H341.966V119.63H362.414C362.44 118.104 362.362 116.435 362.181 114.625C362 112.814 361.638 111.081 361.094 109.426C360.577 107.77 359.801 106.412 358.766 105.352C357.732 104.265 356.348 103.722 354.615 103.722C352.701 103.722 351.11 104.265 349.842 105.352C348.601 106.412 347.618 107.835 346.894 109.62C346.169 111.404 345.652 113.383 345.342 115.556C345.057 117.729 344.915 119.927 344.915 122.152C344.915 124.351 345.057 126.549 345.342 128.748C345.652 130.921 346.182 132.887 346.932 134.646C347.708 136.405 348.769 137.827 350.114 138.914C351.485 139.974 353.231 140.504 355.352 140.504C359.361 140.504 362.646 139.379 365.207 137.129C367.794 134.853 369.566 132.124 370.523 128.942H370.756C369.747 132.279 367.923 135.085 365.285 137.362C362.646 139.638 359.167 140.776 354.848 140.776ZM394.14 140.698C391.32 140.698 388.656 139.961 386.147 138.487C383.638 137.012 381.595 134.891 380.017 132.124C378.465 129.356 377.689 126.032 377.689 122.152C377.689 118.272 378.465 114.948 380.017 112.18C381.595 109.387 383.638 107.253 386.147 105.778C388.656 104.278 391.32 103.528 394.14 103.528C397.632 103.528 400.413 104.821 402.482 107.408C404.551 109.995 405.793 113.655 406.207 118.388V81.994H401.551V81.8H413.23V139.806H417.886V140H406.207V125.916C405.793 130.649 404.551 134.296 402.482 136.857C400.413 139.418 397.632 140.698 394.14 140.698ZM395.304 140.116C397.322 140.116 399.158 139.444 400.814 138.099C402.469 136.754 403.775 134.749 404.732 132.085C405.715 129.421 406.207 126.11 406.207 122.152C406.207 118.194 405.715 114.883 404.732 112.219C403.775 109.529 402.469 107.511 400.814 106.166C399.158 104.795 397.322 104.11 395.304 104.11C393.131 104.11 391.346 104.899 389.95 106.477C388.553 108.029 387.518 110.163 386.846 112.879C386.173 115.595 385.837 118.686 385.837 122.152C385.837 125.618 386.173 128.709 386.846 131.425C387.518 134.115 388.553 136.236 389.95 137.788C391.346 139.34 393.131 140.116 395.304 140.116ZM442.148 140.776C438.759 140.776 435.694 140.039 432.952 138.564C430.236 137.064 428.076 134.93 426.472 132.162C424.869 129.369 424.067 126.032 424.067 122.152C424.067 118.272 424.843 114.948 426.395 112.18C427.973 109.387 430.107 107.253 432.797 105.778C435.487 104.278 438.526 103.528 441.915 103.528C445.769 103.528 448.86 104.304 451.188 105.856C453.542 107.382 455.249 109.387 456.31 111.87C457.396 114.353 457.939 117.005 457.939 119.824H429.266V119.63H449.714C449.74 118.104 449.662 116.435 449.481 114.625C449.3 112.814 448.938 111.081 448.394 109.426C447.877 107.77 447.101 106.412 446.066 105.352C445.032 104.265 443.648 103.722 441.915 103.722C440.001 103.722 438.41 104.265 437.142 105.352C435.901 106.412 434.918 107.835 434.194 109.62C433.469 111.404 432.952 113.383 432.642 115.556C432.357 117.729 432.215 119.927 432.215 122.152C432.215 124.351 432.357 126.549 432.642 128.748C432.952 130.921 433.482 132.887 434.232 134.646C435.008 136.405 436.069 137.827 437.414 138.914C438.785 139.974 440.531 140.504 442.652 140.504C446.661 140.504 449.946 139.379 452.507 137.129C455.094 134.853 456.866 132.124 457.823 128.942H458.056C457.047 132.279 455.223 135.085 452.585 137.362C449.946 139.638 446.467 140.776 442.148 140.776ZM483.186 140V139.806H487.92V81.994H483.186V81.8H494.865V139.806H499.521V140H483.186ZM506.893 140V139.806H511.549V116.099C511.549 113.901 511.458 111.883 511.277 110.046C511.096 108.21 510.669 106.723 509.997 105.584C509.324 104.446 508.277 103.877 506.854 103.877C504.086 103.877 501.9 104.524 500.297 105.817C498.693 107.111 497.49 108.74 496.688 110.706C495.912 112.672 495.408 114.728 495.175 116.875C494.968 119.022 494.865 120.962 494.865 122.695L494.671 123.083C494.671 121.247 494.774 119.216 494.981 116.992C495.188 114.741 495.692 112.594 496.494 110.551C497.296 108.507 498.564 106.826 500.297 105.507C502.056 104.188 504.461 103.528 507.514 103.528C510.54 103.528 512.842 104.032 514.42 105.041C515.998 106.05 517.071 107.447 517.64 109.232C518.235 110.991 518.533 112.995 518.533 115.246V139.806H523.228V140H506.893ZM558.155 140.776C556.94 140.776 555.789 140.608 554.702 140.272C553.616 139.961 552.723 139.327 552.025 138.37C551.352 137.413 551.016 136.017 551.016 134.18V116.371C551.016 114.508 550.874 112.633 550.589 110.745C550.331 108.831 549.71 107.253 548.727 106.011C547.77 104.744 546.257 104.11 544.187 104.11C542.765 104.11 541.342 104.291 539.919 104.653C538.497 105.015 537.19 105.52 536.001 106.166C534.837 106.813 533.892 107.602 533.168 108.533C532.47 109.439 532.121 110.46 532.121 111.598H532.004C532.004 110.279 532.431 109.245 533.285 108.494C534.164 107.718 535.121 107.33 536.156 107.33C537.268 107.33 538.277 107.693 539.182 108.417C540.113 109.115 540.579 110.124 540.579 111.443C540.579 112.995 540.1 114.12 539.143 114.819C538.212 115.517 537.216 115.866 536.156 115.866C534.966 115.866 533.957 115.504 533.129 114.78C532.328 114.056 531.927 112.995 531.927 111.598C531.927 110.383 532.302 109.296 533.052 108.339C533.828 107.356 534.862 106.529 536.156 105.856C537.475 105.158 538.962 104.627 540.618 104.265C542.273 103.877 543.98 103.683 545.739 103.683C549.309 103.683 551.96 104.304 553.693 105.546C555.452 106.787 556.603 108.378 557.147 110.318C557.716 112.258 558 114.276 558 116.371V136.43C558 137.362 558.181 138.176 558.543 138.875C558.931 139.547 559.682 139.884 560.794 139.884C561.699 139.884 562.695 139.457 563.781 138.603C564.868 137.724 565.734 136.547 566.381 135.072L566.497 135.189C565.825 136.844 564.738 138.189 563.238 139.224C561.764 140.259 560.07 140.776 558.155 140.776ZM540.269 140.776C536.906 140.776 534.216 139.922 532.198 138.215C530.206 136.482 529.211 134.141 529.211 131.192C529.211 127.726 530.659 125.075 533.556 123.238C536.479 121.376 540.695 120.445 546.205 120.445H554.625V120.639H546.205C543.929 120.639 542.131 121.195 540.812 122.307C539.518 123.419 538.587 124.765 538.018 126.342C537.475 127.92 537.203 129.421 537.203 130.843C537.203 132.137 537.359 133.482 537.669 134.878C537.979 136.275 538.523 137.465 539.299 138.448C540.075 139.405 541.135 139.884 542.48 139.884C544.032 139.884 545.455 139.418 546.748 138.487C548.042 137.53 549.076 136.029 549.852 133.986C550.628 131.943 551.016 129.278 551.016 125.993H551.21C551.21 128.942 550.835 131.529 550.085 133.753C549.361 135.978 548.197 137.711 546.593 138.952C545.015 140.168 542.907 140.776 540.269 140.776ZM587.6 140.776C584.211 140.776 581.185 140.039 578.521 138.564C575.856 137.064 573.761 134.93 572.235 132.162C570.709 129.369 569.946 126.032 569.946 122.152C569.946 118.789 570.631 115.698 572.002 112.879C573.399 110.059 575.442 107.796 578.133 106.089C580.823 104.382 584.121 103.528 588.027 103.528C590.665 103.528 592.941 103.994 594.855 104.925C596.77 105.856 598.231 107.111 599.24 108.688C600.274 110.266 600.792 112.012 600.792 113.926C600.792 115.323 600.391 116.41 599.589 117.186C598.787 117.962 597.791 118.35 596.601 118.35C595.955 118.35 595.282 118.207 594.584 117.923C593.911 117.612 593.342 117.147 592.877 116.526C592.411 115.879 592.178 115.039 592.178 114.004C592.178 112.633 592.618 111.598 593.497 110.9C594.377 110.176 595.412 109.814 596.601 109.814C597.714 109.814 598.671 110.163 599.473 110.861C600.3 111.534 600.714 112.555 600.714 113.926H600.598C600.598 112.297 600.249 110.848 599.55 109.581C598.878 108.313 597.972 107.253 596.834 106.399C595.722 105.546 594.467 104.899 593.071 104.459C591.674 104.019 590.251 103.8 588.803 103.8C586.5 103.8 584.638 104.407 583.215 105.623C581.793 106.813 580.706 108.352 579.956 110.24C579.206 112.129 578.702 114.133 578.443 116.254C578.184 118.35 578.055 120.315 578.055 122.152C578.055 124.377 578.184 126.575 578.443 128.748C578.727 130.921 579.219 132.887 579.917 134.646C580.642 136.379 581.663 137.775 582.983 138.836C584.302 139.897 586.009 140.427 588.104 140.427C590.484 140.427 592.527 139.935 594.235 138.952C595.968 137.944 597.403 136.573 598.541 134.84C599.705 133.107 600.637 131.141 601.335 128.942H601.529C600.52 132.279 598.929 135.085 596.757 137.362C594.584 139.638 591.531 140.776 587.6 140.776ZM627.357 140.776C623.968 140.776 620.903 140.039 618.161 138.564C615.445 137.064 613.286 134.93 611.682 132.162C610.078 129.369 609.276 126.032 609.276 122.152C609.276 118.272 610.052 114.948 611.604 112.18C613.182 109.387 615.316 107.253 618.006 105.778C620.696 104.278 623.736 103.528 627.124 103.528C630.978 103.528 634.069 104.304 636.397 105.856C638.751 107.382 640.458 109.387 641.519 111.87C642.605 114.353 643.149 117.005 643.149 119.824H614.475V119.63H634.923C634.949 118.104 634.871 116.435 634.69 114.625C634.509 112.814 634.147 111.081 633.604 109.426C633.086 107.77 632.31 106.412 631.276 105.352C630.241 104.265 628.857 103.722 627.124 103.722C625.21 103.722 623.619 104.265 622.352 105.352C621.11 106.412 620.127 107.835 619.403 109.62C618.679 111.404 618.161 113.383 617.851 115.556C617.566 117.729 617.424 119.927 617.424 122.152C617.424 124.351 617.566 126.549 617.851 128.748C618.161 130.921 618.692 132.887 619.442 134.646C620.218 136.405 621.278 137.827 622.623 138.914C623.994 139.974 625.74 140.504 627.861 140.504C631.871 140.504 635.156 139.379 637.717 137.129C640.303 134.853 642.075 132.124 643.032 128.942H643.265C642.256 132.279 640.433 135.085 637.794 137.362C635.156 139.638 631.677 140.776 627.357 140.776ZM660.48 122.695C660.48 120.29 660.622 117.949 660.907 115.672C661.191 113.396 661.696 111.34 662.42 109.503C663.17 107.667 664.205 106.218 665.524 105.158C666.843 104.071 668.525 103.528 670.568 103.528C672.017 103.528 673.258 103.825 674.293 104.42C675.353 104.989 676.168 105.753 676.737 106.71C677.306 107.667 677.591 108.714 677.591 109.852C677.591 111.172 677.19 112.284 676.388 113.189C675.612 114.095 674.513 114.547 673.09 114.547C671.616 114.547 670.465 114.146 669.637 113.344C668.835 112.543 668.434 111.56 668.434 110.396C668.434 108.869 668.926 107.718 669.908 106.942C670.891 106.166 671.939 105.778 673.051 105.778C673.905 105.778 674.668 105.972 675.34 106.36C676.039 106.723 676.582 107.214 676.97 107.835C677.358 108.43 677.552 109.102 677.552 109.852H677.397C677.397 108.74 677.112 107.731 676.543 106.826C676 105.895 675.211 105.145 674.176 104.576C673.168 104.007 671.965 103.722 670.568 103.722C668.55 103.722 666.895 104.265 665.602 105.352C664.308 106.438 663.3 107.899 662.575 109.736C661.851 111.547 661.347 113.59 661.062 115.866C660.778 118.117 660.635 120.393 660.635 122.695H660.48ZM660.635 104.304V139.806H665.33V140H648.995V139.806H653.729V104.498H648.995V104.304H660.635Z" fill="#666666"/>
<path d="M222.046 250.525V250.32H227.013V192.439H222.046V192.234H234.361V207.176C234.853 202.141 236.194 198.268 238.384 195.559C240.6 192.85 243.556 191.495 247.25 191.495C250.233 191.495 253.038 192.275 255.666 193.835C258.32 195.395 260.468 197.639 262.11 200.567C263.78 203.495 264.614 207.012 264.614 211.117C264.614 215.222 263.78 218.752 262.11 221.708C260.468 224.636 258.32 226.894 255.666 228.481C253.038 230.041 250.233 230.821 247.25 230.821C243.556 230.821 240.6 229.453 238.384 226.716C236.194 223.952 234.853 220.066 234.361 215.058V250.32H239.328V250.525H222.046ZM245.937 230.205C248.236 230.205 250.124 229.384 251.602 227.742C253.079 226.1 254.174 223.842 254.886 220.969C255.625 218.068 255.994 214.784 255.994 211.117C255.994 207.45 255.625 204.18 254.886 201.306C254.174 198.433 253.079 196.188 251.602 194.574C250.124 192.932 248.236 192.111 245.937 192.111C243.829 192.111 241.9 192.822 240.149 194.245C238.397 195.669 236.988 197.789 235.921 200.608C234.881 203.4 234.361 206.903 234.361 211.117C234.361 215.331 234.881 218.848 235.921 221.667C236.988 224.486 238.397 226.62 240.149 228.071C241.9 229.494 243.829 230.205 245.937 230.205ZM291.187 230.821C287.355 230.821 284.03 229.918 281.211 228.112C278.393 226.305 276.217 223.911 274.685 220.928C273.152 217.945 272.386 214.675 272.386 211.117C272.386 207.559 273.152 204.289 274.685 201.306C276.217 198.323 278.393 195.928 281.211 194.122C284.03 192.316 287.355 191.413 291.187 191.413C295.073 191.413 298.411 192.316 301.203 194.122C304.022 195.928 306.184 198.323 307.689 201.306C309.221 204.289 309.988 207.559 309.988 211.117C309.988 214.675 309.221 217.945 307.689 220.928C306.184 223.911 304.022 226.305 301.203 228.112C298.411 229.918 295.073 230.821 291.187 230.821ZM291.187 230.616C293.431 230.616 295.223 229.973 296.564 228.686C297.933 227.4 298.959 225.758 299.643 223.76C300.327 221.763 300.779 219.642 300.998 217.398C301.244 215.126 301.367 213.033 301.367 211.117C301.367 209.174 301.244 207.08 300.998 204.836C300.779 202.592 300.327 200.471 299.643 198.474C298.959 196.476 297.933 194.834 296.564 193.548C295.223 192.261 293.431 191.618 291.187 191.618C288.943 191.618 287.136 192.261 285.768 193.548C284.427 194.834 283.415 196.476 282.73 198.474C282.046 200.471 281.581 202.592 281.335 204.836C281.116 207.08 281.006 209.174 281.006 211.117C281.006 213.033 281.116 215.126 281.335 217.398C281.581 219.642 282.046 221.763 282.73 223.76C283.415 225.758 284.427 227.4 285.768 228.686C287.136 229.973 288.943 230.616 291.187 230.616ZM328.563 211.692C328.563 209.147 328.714 206.67 329.015 204.262C329.316 201.826 329.85 199.65 330.616 197.735C331.409 195.792 332.504 194.259 333.9 193.137C335.296 191.988 337.074 191.413 339.236 191.413C340.769 191.413 342.082 191.728 343.177 192.357C344.299 192.959 345.161 193.767 345.763 194.779C346.365 195.792 346.666 196.9 346.666 198.104C346.666 199.5 346.242 200.677 345.394 201.634C344.573 202.592 343.41 203.071 341.905 203.071C340.345 203.071 339.127 202.647 338.251 201.799C337.403 200.95 336.979 199.91 336.979 198.679C336.979 197.064 337.499 195.846 338.538 195.025C339.578 194.204 340.687 193.794 341.864 193.794C342.767 193.794 343.574 193.999 344.285 194.41C345.024 194.793 345.599 195.313 346.01 195.97C346.42 196.599 346.625 197.311 346.625 198.104H346.461C346.461 196.927 346.16 195.846 345.558 194.861C344.983 193.876 344.149 193.096 343.054 192.521C341.987 191.919 340.714 191.618 339.236 191.618C337.074 191.618 335.309 192.193 333.941 193.342C332.573 194.492 331.505 196.038 330.739 197.981C330 199.897 329.48 202.045 329.179 204.426C328.878 206.807 328.728 209.229 328.728 211.692H328.563ZM328.728 192.234V229.795H333.695V230H316.413V229.795H321.38V192.439H316.413V192.234H328.728Z" fill="#666666"/>
<path d="M379.984 283.28C375.888 283.28 372.688 282.555 370.384 281.104C368.123 279.611 366.672 277.52 366.032 274.832C365.435 272.101 365.584 268.901 366.48 265.232L375.632 227.024C375.717 226.64 375.781 226.235 375.824 225.808C375.909 225.381 375.952 225.019 375.952 224.72C375.952 224.037 375.739 223.504 375.312 223.12C374.885 222.736 374.267 222.544 373.456 222.544C371.621 222.544 369.915 222.971 368.336 223.824C366.757 224.677 365.264 225.936 363.856 227.6C362.448 229.221 361.104 231.248 359.824 233.68C358.587 236.112 357.349 238.928 356.112 242.128L355.92 242.064C357.157 238.864 358.416 236.027 359.696 233.552C360.976 231.035 362.363 228.923 363.856 227.216C365.349 225.467 367.013 224.144 368.848 223.248C370.683 222.352 372.731 221.904 374.992 221.904C378.021 221.904 380.432 222.736 382.224 224.4C384.016 226.021 384.912 228.048 384.912 230.48C384.912 231.419 384.827 232.272 384.656 233.04C384.528 233.808 384.421 234.427 384.336 234.896L376.912 266.832C376.144 270.203 375.632 273.061 375.376 275.408C375.12 277.755 375.397 279.547 376.208 280.784C377.019 282.021 378.597 282.64 380.944 282.64C383.845 282.64 386.768 281.595 389.712 279.504C392.656 277.371 395.472 274.533 398.16 270.992C400.848 267.451 403.237 263.525 405.328 259.216C407.461 254.907 409.125 250.512 410.32 246.032C411.557 241.552 412.176 237.371 412.176 233.488C412.176 230.928 411.813 228.816 411.088 227.152C410.363 225.488 409.36 224.251 408.08 223.44C406.8 222.629 405.349 222.224 403.728 222.224V222.096C405.093 222.096 406.352 222.395 407.504 222.992C408.656 223.547 409.573 224.357 410.256 225.424C410.939 226.491 411.28 227.771 411.28 229.264C411.28 231.312 410.512 233.04 408.976 234.448C407.483 235.856 405.733 236.56 403.728 236.56C401.509 236.56 399.76 235.899 398.48 234.576C397.2 233.253 396.56 231.483 396.56 229.264C396.56 227.301 397.243 225.595 398.608 224.144C399.973 222.693 401.68 221.968 403.728 221.968C405.349 221.968 406.821 222.395 408.144 223.248C409.467 224.059 410.512 225.317 411.28 227.024C412.048 228.731 412.432 230.885 412.432 233.488C412.432 237.371 411.813 241.573 410.576 246.096C409.381 250.619 407.696 255.077 405.52 259.472C403.387 263.824 400.933 267.813 398.16 271.44C395.429 275.024 392.507 277.904 389.392 280.08C386.277 282.213 383.141 283.28 379.984 283.28ZM441.098 283.28C434.655 283.28 429.877 281.317 426.762 277.392C423.647 273.467 422.09 268.624 422.09 262.864C422.09 257.275 423.007 252.005 424.842 247.056C426.719 242.107 429.258 237.755 432.458 234C435.658 230.203 439.306 227.237 443.402 225.104C447.541 222.928 451.871 221.84 456.394 221.84C462.879 221.84 467.658 223.824 470.73 227.792C473.845 231.717 475.402 236.56 475.402 242.32C475.402 247.909 474.463 253.179 472.586 258.128C470.751 263.077 468.234 267.451 465.034 271.248C461.834 275.003 458.165 277.947 454.026 280.08C449.93 282.213 445.621 283.28 441.098 283.28ZM439.818 283.024C442.165 283.024 444.447 282.235 446.666 280.656C448.927 279.035 451.082 276.859 453.13 274.128C455.178 271.397 457.055 268.304 458.762 264.848C460.469 261.392 461.941 257.765 463.178 253.968C464.458 250.171 465.439 246.416 466.122 242.704C466.847 238.992 467.21 235.557 467.21 232.4C467.21 229.243 466.442 226.747 464.906 224.912C463.37 223.077 460.959 222.16 457.674 222.16C455.37 222.16 453.087 222.971 450.826 224.592C448.565 226.171 446.41 228.325 444.362 231.056C442.314 233.787 440.437 236.88 438.73 240.336C437.023 243.792 435.53 247.419 434.25 251.216C433.013 255.013 432.031 258.768 431.306 262.48C430.623 266.149 430.282 269.584 430.282 272.784C430.282 275.899 431.05 278.395 432.586 280.272C434.165 282.107 436.575 283.024 439.818 283.024ZM502.979 283.28C499.395 283.28 495.982 282.725 492.739 281.616C489.539 280.464 486.915 278.8 484.867 276.624C482.819 274.405 481.795 271.717 481.795 268.56C481.795 266.683 482.35 265.061 483.459 263.696C484.611 262.288 486.19 261.584 488.195 261.584C489.944 261.584 491.374 262.203 492.483 263.44C493.592 264.635 494.147 266.171 494.147 268.048C494.147 270.011 493.528 271.504 492.291 272.528C491.054 273.552 489.624 274.064 488.003 274.064C486.894 274.064 485.87 273.872 484.931 273.488C483.992 273.104 483.246 272.507 482.691 271.696C482.179 270.885 481.923 269.84 481.923 268.56H482.051C482.051 271.717 483.054 274.384 485.059 276.56C487.064 278.693 489.667 280.315 492.867 281.424C496.067 282.491 499.416 283.024 502.915 283.024C505.304 283.024 507.8 282.64 510.403 281.872C513.048 281.104 515.288 279.867 517.123 278.16C519 276.453 519.939 274.192 519.939 271.376C519.939 268.987 519.214 266.875 517.763 265.04C516.312 263.205 514.435 261.52 512.131 259.984C509.827 258.448 507.374 256.955 504.771 255.504C502.168 254.011 499.715 252.453 497.411 250.832C495.107 249.168 493.23 247.333 491.779 245.328C490.328 243.28 489.603 240.912 489.603 238.224C489.603 235.067 490.52 232.272 492.355 229.84C494.19 227.365 496.728 225.445 499.971 224.08C503.214 222.672 506.926 221.968 511.107 221.968C514.862 221.968 518.04 222.544 520.643 223.696C523.288 224.848 525.294 226.299 526.659 228.048C528.067 229.797 528.771 231.568 528.771 233.36C528.771 235.664 528.174 237.349 526.979 238.416C525.827 239.44 524.504 239.952 523.011 239.952C521.432 239.952 520.024 239.461 518.787 238.48C517.592 237.456 516.995 235.899 516.995 233.808C516.995 232.144 517.55 230.736 518.659 229.584C519.811 228.389 521.262 227.792 523.011 227.792C524.803 227.792 526.19 228.325 527.171 229.392C528.152 230.416 528.643 231.739 528.643 233.36H528.515C528.515 231.611 527.832 229.883 526.467 228.176C525.144 226.469 523.182 225.061 520.579 223.952C518.019 222.8 514.862 222.224 511.107 222.224C508.931 222.224 506.648 222.544 504.259 223.184C501.912 223.824 499.907 224.869 498.243 226.32C496.622 227.771 495.811 229.755 495.811 232.272C495.811 234.405 496.515 236.283 497.923 237.904C499.374 239.525 501.23 241.04 503.491 242.448C505.752 243.813 508.142 245.2 510.659 246.608C513.219 248.016 515.63 249.573 517.891 251.28C520.152 252.987 521.987 254.949 523.395 257.168C524.846 259.387 525.571 262.032 525.571 265.104C525.571 268.901 524.462 272.165 522.243 274.896C520.024 277.584 517.187 279.653 513.731 281.104C510.275 282.555 506.691 283.28 502.979 283.28Z" fill="#666666"/>
</svg>
